<?xml version="1.0" encoding="utf-8"?>
<!-- Generator: Adobe Illustrator 18.1.1, SVG Export Plug-In . SVG Version: 6.00 Build 0)  -->
<svg version="1.1" id="Layer_1" xmlns="http://www.w3.org/2000/svg" xmlns:xlink="http://www.w3.org/1999/xlink" x="0px" y="0px"
	 viewBox="0 0 283 343" enable-background="new 0 0 283 343" xml:space="preserve">
<circle opacity="0.93" fill="#9F3E87" cx="271.1" cy="89.4" r="2.4"/>
<g opacity="0.93">
	<circle fill="#208AD1" cx="71.3" cy="126.2" r="2.4"/>
	<circle fill="#9F3E87" cx="137.9" cy="67.6" r="2.4"/>
	<circle fill="#41C44B" cx="128.3" cy="16.4" r="2.4"/>
	<circle fill="#41C44B" cx="124" cy="27.1" r="2.4"/>
	<circle fill="#41C44B" cx="119.8" cy="40.9" r="2.4"/>
	<circle fill="#208AD1" cx="107" cy="102.7" r="2.4"/>
	<circle fill="#208AD1" cx="99.5" cy="23.9" r="2.4"/>
	<circle fill="#9F3E87" cx="180.5" cy="105.4" r="2.4"/>
	<path fill="none" stroke="#208AD1" stroke-width="1.0658" stroke-miterlimit="10" d="M128.5,327.4c0,0,2.5-137.7-56.9-201.7"/>
	<path fill="none" stroke="#9F3E87" stroke-width="1.0658" stroke-miterlimit="10" d="M128.2,327.4c0,0-34-165.3,52.7-222.3"/>
	<path fill="none" stroke="#9F3E87" stroke-width="1.0658" stroke-miterlimit="10" d="M128.4,327.4c0,0-18.1-159.8,10-259.5"/>
	<path fill="none" stroke="#208AD1" stroke-width="1.0658" stroke-miterlimit="10" d="M100.2,24.2c41.5,77.1,28.9,303.1,28.9,303.1
		s3.4-124.6-22.5-224.3"/>
	<path fill="none" stroke="#41C44B" stroke-width="1.0658" stroke-miterlimit="10" d="M127.8,18.9c-12,105.2,1.3,308.4,1.3,308.4
		s-3.2-257.1-9.6-286.9"/>
	<path fill="none" stroke="#41C44B" stroke-width="1.0658" stroke-miterlimit="10" d="M129.1,327.3c0,0-0.7-269.5-4.8-300.3"/>
	<circle fill="#208AD1" cx="16.9" cy="69.7" r="2.4"/>
</g>
<path opacity="0.93" fill="none" stroke="#208AD1" stroke-width="1.0658" stroke-miterlimit="10" d="M129.4,325.7
	c0,0,6-201.7-112.3-255.5"/>
<path opacity="0.93" fill="none" stroke="#9F3E87" stroke-width="1.0658" stroke-miterlimit="10" d="M128.5,327.4
	c0,0-68.1-213.5,142.4-237.7"/>
</svg>
